<svg width="80" height="80" viewBox="0 0 80 80" fill="none" xmlns="http://www.w3.org/2000/svg">
<path d="M51.0547 8.66561C50.8755 8.71561 50.6932 8.74113 50.5078 8.74218C43.4245 8.74738 36.3411 8.74999 29.2578 8.74999C29.0891 8.74999 28.9719 8.73488 28.9062 8.70468C30.8813 7.22655 32.8641 5.75988 34.8547 4.30468C35.7099 3.67968 36.4224 3.24634 36.9922 3.00468C39.6141 1.8953 42.176 2.19895 44.6781 3.91561C45.4281 4.43124 47.5536 6.01457 51.0547 8.66561Z" fill="#FFA300"/>
<path d="M51.0547 8.66565C51.1172 8.69794 51.1823 8.71409 51.25 8.71409C54.7792 8.73492 58.3084 8.7469 61.8375 8.75002C63.1 8.75107 63.9755 8.83232 64.4641 8.99377C65.4058 9.30419 66.1703 9.90002 66.7578 10.7813C67.0683 11.2459 67.2818 11.7568 67.3985 12.3141C67.4662 12.6349 67.5 13.1781 67.5 13.9438C67.5 16.0667 67.5 18.1896 67.5 20.3125C67.5 20.5875 67.5151 20.7828 67.5453 20.8985C67.5151 21.013 67.5 21.2084 67.5 21.4844C67.4969 26.1198 67.499 30.7552 67.5063 35.3907L51.0547 50.9438C48.6412 48.7354 46.2177 46.538 43.7844 44.3516C43.15 43.7828 42.6104 43.3933 42.1656 43.1828C40.7552 42.5151 39.3141 42.5146 37.8422 43.1813C37.5099 43.3313 37.1776 43.5396 36.8453 43.8063C36.5589 44.0354 36.2594 44.2933 35.9469 44.5797C34.3407 46.0568 32.0068 48.1782 28.9453 50.9438L12.4938 35.3907C12.5011 30.599 12.5042 25.8073 12.5031 21.0156C12.5031 20.9709 12.487 20.9318 12.4547 20.8985C12.4849 20.8662 12.5 20.8141 12.5 20.7422C12.5 18.2422 12.5 15.7422 12.5 13.2422C12.5 12.1787 12.8578 11.2214 13.5735 10.3703C14.4683 9.30575 15.6209 8.77138 17.0313 8.76721C20.7938 8.75575 24.5568 8.75002 28.3203 8.75002C28.5953 8.75002 28.7906 8.73492 28.9063 8.70471C28.9719 8.73492 29.0891 8.75002 29.2578 8.75002C36.3412 8.75002 43.4245 8.74742 50.5078 8.74221C50.6933 8.74117 50.8755 8.71565 51.0547 8.66565ZM44.1266 19.7094C42.6641 18.624 41.0146 18.2094 39.1782 18.4656C37.0177 18.7677 35.2787 19.6922 33.961 21.2391C33.2849 22.0339 32.7797 22.936 32.4453 23.9453C31.987 25.3287 31.888 26.7479 32.1485 28.2031C32.5183 30.2698 33.5703 31.6802 35.3047 32.4344C36.2391 32.8417 37.2558 33.0177 38.3547 32.9625C40.0943 32.875 41.7078 32.2078 43.1953 30.961C43.2124 30.9467 43.2324 30.9364 43.2539 30.9309C43.2754 30.9253 43.2979 30.9246 43.3198 30.9288C43.3416 30.9329 43.3622 30.9419 43.3802 30.9551C43.3981 30.9682 43.4129 30.9852 43.4235 31.0047C44.0474 32.1464 45.0677 32.775 46.4844 32.8907C47.6271 32.9834 48.661 32.8386 49.586 32.4563C50.2724 32.174 50.9016 31.7255 51.4735 31.111C52.0328 30.511 52.463 29.8511 52.7641 29.1313C53.5422 27.2698 53.8334 25.3261 53.6375 23.3C53.5344 22.2323 53.299 21.2219 52.9313 20.2688C52.2979 18.6302 51.3308 17.2287 50.0297 16.0641C47.6891 13.9703 44.8927 12.8214 41.6407 12.6172C37.8073 12.3766 34.3974 13.55 31.411 16.1375C29.8183 17.5167 28.5703 19.1594 27.6672 21.0657C26.8755 22.7344 26.4297 24.4755 26.3297 26.2891C26.2724 27.3297 26.3443 28.3656 26.5453 29.3969C27.1797 32.6511 28.8719 35.1688 31.6219 36.95C32.5396 37.5438 33.4781 37.9875 34.4375 38.2813C35.6604 38.6552 36.9677 38.8375 38.3594 38.8282C40.9146 38.8115 43.2808 38.3203 45.4578 37.3547C45.4672 37.3505 45.5865 37.3005 45.8157 37.2047C46.1511 37.0641 46.3709 36.912 46.475 36.7485C46.8771 36.113 46.838 35.5865 46.3578 35.1688C46.1703 35.0052 45.9698 34.913 45.7563 34.8922C45.5417 34.8703 45.3125 34.9032 45.0688 34.9907C44.4729 35.2021 43.8771 35.4136 43.2813 35.625C41.6907 36.1917 40.05 36.475 38.3594 36.475C35.1823 36.4771 32.6714 35.3412 30.8266 33.0672C30.1578 32.2422 29.6469 31.3407 29.2938 30.3625C28.675 28.6532 28.5448 26.8625 28.9031 24.9907C29.3615 22.5938 30.437 20.5203 32.1297 18.7703C33.6922 17.1537 35.4823 16.0531 37.5 15.4688C39.7354 14.8219 42.0271 14.861 44.375 15.586C46.3469 16.1953 47.9584 17.2313 49.2094 18.6938C49.8604 19.4552 50.3505 20.2771 50.6797 21.1594C51.0193 22.0688 51.2032 23.0235 51.2313 24.0235C51.2625 25.088 51.1604 26.1391 50.925 27.1766C50.7917 27.7693 50.5615 28.3589 50.2344 28.9453C49.649 29.9943 48.7641 30.5865 47.5797 30.7219C46.8849 30.8021 46.4188 30.5584 46.1813 29.9907C45.949 29.4334 45.8933 28.7724 46.0141 28.0078C46.4183 25.4641 46.8485 22.925 47.3047 20.3906C47.4058 19.8302 47.2834 19.3719 46.9375 19.0156C46.6313 18.7 46.2375 18.5412 45.7563 18.5391C45.0406 18.537 44.5282 18.9183 44.2188 19.6828C44.2153 19.6914 44.2099 19.6991 44.2031 19.7053C44.1962 19.7115 44.188 19.716 44.1791 19.7186C44.1703 19.7211 44.1609 19.7216 44.1518 19.72C44.1427 19.7185 44.1341 19.7148 44.1266 19.7094ZM19.7527 14.5882C19.752 14.4598 19.7261 14.3327 19.6763 14.2143C19.6265 14.0959 19.5539 13.9885 19.4626 13.8981C19.3713 13.8078 19.2631 13.7363 19.1442 13.6877C19.0252 13.6392 18.8979 13.6146 18.7695 13.6152L18.0132 13.6192C17.7538 13.6206 17.5056 13.7249 17.3231 13.9093C17.1406 14.0937 17.0389 14.343 17.0402 14.6024L17.0411 14.7649C17.0418 14.8934 17.0677 15.0204 17.1175 15.1389C17.1673 15.2573 17.2399 15.3647 17.3312 15.4551C17.4225 15.5454 17.5307 15.6169 17.6496 15.6654C17.7685 15.714 17.8959 15.7386 18.0243 15.7379L18.7806 15.734C19.04 15.7326 19.2882 15.6282 19.4707 15.4439C19.6532 15.2595 19.7549 15.0101 19.7536 14.7507L19.7527 14.5882ZM28.1531 14.6306C28.1529 14.4956 28.126 14.3619 28.0741 14.2373C28.0223 14.1126 27.9463 13.9994 27.8507 13.9041C27.755 13.8088 27.6416 13.7333 27.5167 13.6818C27.3919 13.6304 27.2582 13.604 27.1232 13.6042L22.9982 13.6114C22.7255 13.6119 22.4642 13.7207 22.2717 13.9138C22.0792 14.107 21.9714 14.3687 21.9718 14.6414L21.972 14.7164C21.9725 14.989 22.0812 15.2503 22.2744 15.4428C22.4675 15.6353 22.7292 15.7432 23.0019 15.7427L27.1269 15.7355C27.2619 15.7353 27.3955 15.7084 27.5202 15.6565C27.6448 15.6047 27.758 15.5287 27.8534 15.4331C27.9487 15.3375 28.0242 15.224 28.0756 15.0992C28.1271 14.9743 28.1534 14.8406 28.1532 14.7056L28.1531 14.6306ZM22.0953 18.8766C22.0953 18.6064 21.988 18.3473 21.797 18.1562C21.6059 17.9652 21.3468 17.8578 21.0766 17.8578H18.1328C17.8626 17.8578 17.6035 17.9652 17.4125 18.1562C17.2214 18.3473 17.1141 18.6064 17.1141 18.8766V18.9735C17.1141 19.2437 17.2214 19.5028 17.4125 19.6938C17.6035 19.8849 17.8626 19.9922 18.1328 19.9922H21.0766C21.3468 19.9922 21.6059 19.8849 21.797 19.6938C21.988 19.5028 22.0953 19.2437 22.0953 18.9735V18.8766Z" fill="#E5E8EF"/>
<path d="M44.2188 19.6828C44.5282 18.9182 45.0407 18.537 45.7563 18.5391C46.2375 18.5412 46.6313 18.7 46.9375 19.0156C47.2834 19.3719 47.4058 19.8302 47.3047 20.3906C46.8485 22.925 46.4183 25.4641 46.0141 28.0078C45.8933 28.7724 45.949 29.4333 46.1813 29.9906C46.4188 30.5583 46.8849 30.8021 47.5797 30.7219C48.7641 30.5865 49.649 29.9943 50.2344 28.9453C50.5615 28.3589 50.7917 27.7693 50.925 27.1766C51.1605 26.1391 51.2625 25.088 51.2313 24.0234C51.2032 23.0234 51.0193 22.0688 50.6797 21.1594C50.3506 20.2771 49.8605 19.4552 49.2094 18.6938C47.9584 17.2313 46.3469 16.1953 44.375 15.5859C42.0271 14.8609 39.7355 14.8219 37.5 15.4688C35.4823 16.0531 33.6922 17.1537 32.1297 18.7703C30.437 20.5203 29.3615 22.5938 28.9032 24.9906C28.5448 26.8625 28.675 28.6531 29.2938 30.3625C29.6469 31.3406 30.1579 32.2422 30.8266 33.0672C32.6714 35.3412 35.1823 36.4771 38.3594 36.475C40.05 36.475 41.6907 36.1917 43.2813 35.625C43.8771 35.4136 44.473 35.2021 45.0688 34.9906C45.3125 34.9031 45.5417 34.8703 45.7563 34.8922C45.9698 34.913 46.1704 35.0052 46.3579 35.1688C46.8381 35.5865 46.8771 36.113 46.475 36.7484C46.3709 36.912 46.1511 37.0641 45.8157 37.2047C45.5865 37.3005 45.4672 37.3505 45.4579 37.3547C43.2808 38.3203 40.9146 38.8115 38.3594 38.8281C36.9677 38.8375 35.6605 38.6552 34.4375 38.2813C33.4782 37.9875 32.5396 37.5438 31.6219 36.95C28.8719 35.1688 27.1797 32.6511 26.5454 29.3969C26.3443 28.3656 26.2724 27.3297 26.3297 26.2891C26.4297 24.4755 26.8756 22.7344 27.6672 21.0656C28.5704 19.1594 29.8183 17.5167 31.411 16.1375C34.3974 13.55 37.8073 12.3766 41.6407 12.6172C44.8927 12.8214 47.6891 13.9703 50.0297 16.0641C51.3308 17.2287 52.298 18.6302 52.9313 20.2688C53.299 21.2219 53.5344 22.2323 53.6375 23.3C53.8334 25.326 53.5422 27.2698 52.7641 29.1313C52.4631 29.8511 52.0329 30.5109 51.4735 31.1109C50.9016 31.7255 50.2724 32.174 49.586 32.4563C48.661 32.8386 47.6271 32.9833 46.4844 32.8906C45.0677 32.775 44.0474 32.1464 43.4235 31.0047C43.4129 30.9851 43.3981 30.9682 43.3802 30.955C43.3622 30.9419 43.3416 30.9329 43.3198 30.9287C43.298 30.9245 43.2755 30.9253 43.2539 30.9308C43.2324 30.9364 43.2124 30.9467 43.1954 30.9609C41.7079 32.2078 40.0943 32.875 38.3547 32.9625C37.2558 33.0177 36.2391 32.8417 35.3047 32.4344C33.5704 31.6802 32.5183 30.2698 32.1485 28.2031C31.8881 26.7479 31.987 25.3287 32.4454 23.9453C32.7797 22.9359 33.2849 22.0339 33.961 21.2391C35.2787 19.6922 37.0178 18.7677 39.1782 18.4656C41.0146 18.2094 42.6641 18.624 44.1266 19.7094C44.1341 19.7148 44.1427 19.7184 44.1518 19.72C44.1609 19.7216 44.1703 19.7211 44.1792 19.7185C44.188 19.716 44.1962 19.7114 44.2031 19.7053C44.21 19.6991 44.2153 19.6914 44.2188 19.6828ZM36.4407 29.3C36.9042 29.6698 37.4657 29.8901 38.125 29.9609C40.3323 30.1995 41.8599 29.3474 42.7079 27.4047C42.9266 26.9047 43.0855 26.3859 43.1844 25.8484C43.3605 24.8859 43.5339 23.9162 43.7047 22.9391C43.717 22.8689 43.7103 22.7966 43.6853 22.7299C43.6603 22.6631 43.6179 22.6043 43.5625 22.5594C42.573 21.7573 41.4506 21.3828 40.1954 21.4359C38.3901 21.512 37.0157 22.2344 36.0719 23.6031C35.7344 24.0927 35.5079 24.6167 35.3922 25.175C35.2797 25.7135 35.2401 26.2932 35.2735 26.9141C35.3287 27.9266 35.7177 28.7219 36.4407 29.3Z" fill="#B244F1"/>
<path d="M18.7695 13.6152L18.0133 13.6192C17.4731 13.622 17.0374 14.0622 17.0403 14.6024L17.0411 14.7649C17.044 15.3051 17.4842 15.7408 18.0244 15.7379L18.7806 15.734C19.3208 15.7311 19.7564 15.2909 19.7536 14.7507L19.7527 14.5882C19.7499 14.048 19.3097 13.6124 18.7695 13.6152Z" fill="#CDD4DF"/>
<path d="M27.1231 13.6042L22.9981 13.6114C22.4303 13.6124 21.9708 14.0735 21.9718 14.6413L21.9719 14.7163C21.9729 15.2842 22.434 15.7437 23.0018 15.7427L27.1268 15.7355C27.6946 15.7345 28.1541 15.2734 28.1531 14.7056L28.153 14.6306C28.152 14.0627 27.6909 13.6032 27.1231 13.6042Z" fill="#CDD4DF"/>
<path d="M21.0765 17.8578H18.1328C17.5701 17.8578 17.114 18.3139 17.114 18.8765V18.9734C17.114 19.5361 17.5701 19.9922 18.1328 19.9922H21.0765C21.6392 19.9922 22.0953 19.5361 22.0953 18.9734V18.8765C22.0953 18.3139 21.6392 17.8578 21.0765 17.8578Z" fill="#CDD4DF"/>
<path d="M12.4547 20.8984C12.487 20.9318 12.5031 20.9708 12.5031 21.0156C12.5041 25.8073 12.501 30.599 12.4937 35.3906L4.06873 27.4609C4.53331 26.8901 4.95779 26.4573 5.34216 26.1625C6.76925 25.0656 9.14008 23.3109 12.4547 20.8984Z" fill="#FFA300"/>
<path d="M67.5453 20.8984C67.5828 20.8901 67.6296 20.9062 67.6859 20.9469C69.8994 22.5864 72.1119 24.2286 74.3234 25.8734C74.9182 26.3161 75.4432 26.8302 75.8984 27.4156C75.8265 27.4604 75.7734 27.5193 75.739 27.5922C75.7119 27.6505 75.6843 27.6932 75.6562 27.7203C73.0145 30.2245 70.3708 32.726 67.7249 35.225C67.6166 35.326 67.5437 35.3812 67.5062 35.3906C67.4989 30.7552 67.4968 26.1198 67.4999 21.4844C67.4999 21.2083 67.515 21.013 67.5453 20.8984Z" fill="#FFA300"/>
<path d="M36.4406 29.3C35.7177 28.7219 35.3286 27.9265 35.2734 26.914C35.2401 26.2932 35.2796 25.7135 35.3921 25.175C35.5078 24.6166 35.7343 24.0927 36.0718 23.6031C37.0156 22.2344 38.3901 21.512 40.1953 21.4359C41.4505 21.3828 42.5729 21.7573 43.5625 22.5594C43.6178 22.6042 43.6602 22.6631 43.6852 22.7299C43.7102 22.7966 43.7169 22.8688 43.7046 22.939C43.5338 23.9161 43.3604 24.8859 43.1843 25.8484C43.0854 26.3859 42.9265 26.9047 42.7078 27.4047C41.8598 29.3474 40.3322 30.1995 38.125 29.9609C37.4656 29.8901 36.9041 29.6698 36.4406 29.3Z" fill="#E5E8EF"/>
<path d="M75.8984 27.4156C76.9932 28.7771 77.5583 30.3417 77.5938 32.1094C77.6083 32.8386 77.6156 33.5677 77.6156 34.2969C77.6167 44.4011 77.6172 54.5052 77.6172 64.6094C77.6172 64.8188 77.6099 65.175 77.5953 65.6781C77.5859 65.9802 77.587 66.336 77.5984 66.7453C77.6203 67.5735 77.6135 68.6323 77.5781 69.9219C77.5365 71.4625 77.1349 72.8297 76.3734 74.0235C76.3182 73.9162 76.1891 73.7698 75.9859 73.5844C69.287 67.4834 62.574 61.3969 55.8469 55.325C54.2406 53.875 52.6432 52.4146 51.0547 50.9438L67.5063 35.3906C67.5438 35.3813 67.6167 35.3261 67.725 35.225C70.3708 32.7261 73.0146 30.2245 75.6563 27.7203C75.6844 27.6933 75.712 27.6505 75.7391 27.5922C75.7734 27.5193 75.8266 27.4604 75.8984 27.4156Z" fill="#FFD80C"/>
<path d="M4.06875 27.4609L12.4937 35.3906L28.9453 50.9438C27.1557 52.6 24.7109 54.8276 21.6109 57.6266C19.1943 59.8089 13.2432 65.2021 3.75781 73.8062C3.7174 73.8427 3.6715 73.8642 3.62812 73.8672L3.55469 73.8734C2.79948 72.663 2.42188 71.2938 2.42188 69.7656C2.42188 57.2656 2.42448 44.7656 2.42969 32.2656C2.43073 30.4677 2.97708 28.8661 4.06875 27.4609Z" fill="#FFD80C"/>
<path d="M51.0547 50.9438C52.6432 52.4146 54.2406 53.875 55.8469 55.325C62.574 61.3969 69.287 67.4833 75.9859 73.5844C76.1891 73.7698 76.3182 73.9161 76.3734 74.0234C75.0391 76.0818 73.226 77.2667 70.9344 77.5781C70.5469 77.6302 69.5062 77.6562 67.8125 77.6562C48.8854 77.6562 29.9583 77.6562 11.0312 77.6562C9.85312 77.6562 8.96354 77.5833 8.3625 77.4375C6.31875 76.9427 4.71615 75.7547 3.55469 73.8734L3.62812 73.8672C3.6715 73.8642 3.7174 73.8427 3.75781 73.8062C13.2432 65.2021 19.1943 59.8089 21.6109 57.6266C24.7109 54.8276 27.1557 52.6 28.9453 50.9438C32.0068 48.1781 34.3406 46.0568 35.9469 44.5797C36.2594 44.2932 36.5589 44.0354 36.8453 43.8062C37.1776 43.5396 37.5099 43.3312 37.8422 43.1812C39.3141 42.5146 40.7552 42.5151 42.1656 43.1828C42.6104 43.3932 43.15 43.7828 43.7844 44.3516C46.2177 46.538 48.6411 48.7354 51.0547 50.9438ZM34.9016 65.4641C34.9016 65.1698 34.7847 64.8877 34.5766 64.6796C34.3686 64.4716 34.0864 64.3547 33.7922 64.3547H31.7109C31.4167 64.3547 31.1345 64.4716 30.9265 64.6796C30.7184 64.8877 30.6016 65.1698 30.6016 65.4641V65.5922C30.6016 65.8864 30.7184 66.1686 30.9265 66.3766C31.1345 66.5847 31.4167 66.7016 31.7109 66.7016H33.7922C34.0864 66.7016 34.3686 66.5847 34.5766 66.3766C34.7847 66.1686 34.9016 65.8864 34.9016 65.5922V65.4641ZM50.575 65.5031C50.575 65.1948 50.4525 64.8991 50.2345 64.6811C50.0165 64.4631 49.7208 64.3406 49.4125 64.3406H38.4813C38.1729 64.3406 37.8772 64.4631 37.6592 64.6811C37.4412 64.8991 37.3187 65.1948 37.3187 65.5031V65.55C37.3187 65.8583 37.4412 66.154 37.6592 66.372C37.8772 66.59 38.1729 66.7125 38.4813 66.7125H49.4125C49.7208 66.7125 50.0165 66.59 50.2345 66.372C50.4525 66.154 50.575 65.8583 50.575 65.55V65.5031ZM47.2141 70.9156C47.2141 70.6115 47.0932 70.3197 46.8782 70.1047C46.6631 69.8896 46.3714 69.7687 46.0672 69.7687H35.0984C34.7943 69.7687 34.5026 69.8896 34.2875 70.1047C34.0724 70.3197 33.9516 70.6115 33.9516 70.9156V70.9594C33.9516 71.2635 34.0724 71.5553 34.2875 71.7703C34.5026 71.9854 34.7943 72.1063 35.0984 72.1063H46.0672C46.3714 72.1063 46.6631 71.9854 46.8782 71.7703C47.0932 71.5553 47.2141 71.2635 47.2141 70.9594V70.9156Z" fill="#FFA300"/>
<path d="M33.7922 64.3547H31.7109C31.0982 64.3547 30.6016 64.8514 30.6016 65.4641V65.5922C30.6016 66.2049 31.0982 66.7016 31.7109 66.7016H33.7922C34.4049 66.7016 34.9016 66.2049 34.9016 65.5922V65.4641C34.9016 64.8514 34.4049 64.3547 33.7922 64.3547Z" fill="#FFD80C"/>
<path d="M49.4125 64.3406H38.4812C37.8392 64.3406 37.3187 64.8611 37.3187 65.5031V65.55C37.3187 66.192 37.8392 66.7125 38.4812 66.7125H49.4125C50.0545 66.7125 50.575 66.192 50.575 65.55V65.5031C50.575 64.8611 50.0545 64.3406 49.4125 64.3406Z" fill="#FFD80C"/>
<path d="M46.0672 69.7687H35.0984C34.465 69.7687 33.9515 70.2822 33.9515 70.9156V70.9594C33.9515 71.5928 34.465 72.1062 35.0984 72.1062H46.0672C46.7006 72.1062 47.214 71.5928 47.214 70.9594V70.9156C47.214 70.2822 46.7006 69.7687 46.0672 69.7687Z" fill="#FFD80C"/>
</svg>
