<svg width="241" height="240" viewBox="0 0 241 240" fill="none" xmlns="http://www.w3.org/2000/svg">
<circle cx="120.249" cy="120" r="120" fill="white"/>
<path d="M140.148 22.2084C148.633 25.228 155.398 30.9294 160.441 39.3126C160.5 39.4125 160.578 39.4988 160.67 39.5665C160.763 39.6342 160.867 39.682 160.978 39.707C161.088 39.732 161.202 39.7337 161.314 39.712C161.426 39.6903 161.532 39.6457 161.627 39.5808L182.566 25.1584C182.709 25.0582 182.882 25.0177 183.047 25.0456C183.212 25.0735 183.357 25.1675 183.449 25.3074L186.752 30.4228C187.441 31.4889 187.201 32.406 186.03 33.1742L169.752 43.8419C169.596 43.9461 169.466 44.0895 169.376 44.2595C169.286 44.4294 169.238 44.6204 169.236 44.8154C169.234 45.0104 169.279 45.2033 169.365 45.3766C169.452 45.55 169.579 45.6984 169.733 45.8086C179.775 52.8807 184.138 63.1578 182.822 76.6399C182.798 76.901 182.86 77.163 182.998 77.3819C183.136 77.6008 183.342 77.7631 183.582 77.8417C191.187 80.3647 195.981 84.9966 197.961 91.7377C199.626 97.4126 199.23 102.846 196.775 108.037C194.193 113.494 189.637 117.113 183.107 118.894C182.044 119.185 177.219 119.447 168.632 119.678C137.626 119.632 106.62 119.619 75.6142 119.639C74.5195 119.559 73.4913 119.794 72.5294 120.344C71.2829 120.397 70.1629 120.808 69.1694 121.576C65.1766 124.661 63.4365 128.403 63.949 132.8C64.354 136.25 65.7587 139.054 68.1633 141.213C70.6881 143.477 73.8836 144.388 77.7498 143.944C78.5408 143.858 79.1071 143.454 79.4488 142.732C79.6576 143.785 80.2778 144.199 81.3092 143.974C81.3092 143.974 105.592 143.974 154.157 143.974C156.423 144.497 158.704 144.911 161.001 145.216C162.665 146.732 164.399 148.159 166.202 149.497C171.638 154.807 173.792 161.078 172.666 168.309C171.046 178.686 165.035 184.645 154.632 186.188C151.886 186.016 149.184 186.264 146.526 186.933C130.087 186.642 113.647 186.559 97.2077 186.685C95.2081 186.658 93.468 187.307 91.9873 188.632L91.6361 188.671C91.3535 188.71 91.1246 188.791 90.9907 188.9C88.4153 190.992 86.8839 193.585 86.3967 196.677C85.9411 199.571 86.4537 202.359 87.9343 205.041C89.6555 208.146 92.2151 210.05 95.6131 210.752C96.48 210.931 99.4509 211.02 104.526 211.02C117.352 211.02 130.178 211.02 143.005 211.02C148.788 209.868 152.215 206.219 153.284 200.074C153.342 199.731 153.514 199.421 153.769 199.197C154.024 198.974 154.347 198.852 154.679 198.852H160.65C160.765 198.852 160.879 198.876 160.985 198.923C161.091 198.97 161.187 199.038 161.267 199.124C161.348 199.21 161.411 199.312 161.453 199.424C161.496 199.536 161.516 199.656 161.513 199.776C161.4 204.166 160.014 208.116 157.356 211.626C154.781 215.03 151.658 217.364 147.988 218.629C145.957 219.331 142.277 219.738 136.949 219.85C125.205 220.089 113.461 220.042 101.716 219.711C95.901 220.254 90.9179 218.97 86.7669 215.857C82.6728 212.791 79.9709 208.663 78.661 203.471C77.174 197.611 78.275 191.913 81.9641 186.377C83.7422 183.708 86.4505 181.232 90.089 178.947C94.2716 177.669 98.5428 177.186 102.903 177.497C119.026 177.404 135.149 177.464 151.272 177.676C151.34 177.678 151.406 177.659 151.458 177.621C151.511 177.582 151.546 177.528 151.557 177.467L151.585 177.249C157.426 177.778 161.428 175.524 163.592 170.485C166.224 164.339 164.839 159.208 159.435 155.089C159.03 154.778 158.707 154.715 158.467 154.9C157.075 153.801 155.48 153.221 153.683 153.162C153.683 153.162 130.824 153.162 85.1058 153.162C84.4161 153.162 83.9415 153.258 83.6821 153.45C81.7964 153.086 79.9013 152.851 77.9966 152.745C74.8897 152.559 72.9945 152.4 72.3111 152.268C64.2749 150.692 59.0671 145.673 56.6879 137.21C55.5742 133.243 55.7324 129.062 57.1625 124.665C59.219 118.348 63.6168 113.775 70.3559 110.948C72.1213 110.934 73.8741 110.769 75.6142 110.451C139.208 110.451 171.005 110.451 171.005 110.451C171.372 110.517 171.543 110.352 171.518 109.954C173.694 110.564 176.529 110.729 180.022 110.451C184.015 110.133 186.97 108.421 188.887 105.316C191.532 101.025 191.801 96.714 189.694 92.3833C188.258 89.4432 186.125 87.4566 183.297 86.4236C181.822 85.8807 179.133 85.6191 175.229 85.639C137.515 85.8641 99.8021 85.8575 62.0886 85.6191C57.6719 85.7979 54.7643 85.6952 53.3658 85.3112C47.1457 83.5895 43.1782 80.0336 41.4633 74.6434C39.8687 69.6174 40.318 64.7967 42.8111 60.1813C45.4751 55.2414 50.0121 52.4867 56.4221 51.9173C56.4538 51.9106 57.0644 51.9338 58.254 51.9868C59.3677 52.0331 60.2599 51.5829 60.9307 50.6359C61.5887 49.7089 61.9304 49.2288 61.9558 49.1957C70.6501 39.4219 81.5275 35.4223 94.588 37.1969C94.9428 37.2452 95.3031 37.1953 95.633 37.0524C95.9628 36.9094 96.2506 36.6784 96.4673 36.3824C103.111 27.3701 111.436 22.0693 121.44 20.4801C127.825 19.4736 134.061 20.0497 140.148 22.2084ZM155.97 48.9275C153.49 42.4513 149.633 37.4088 144.4 33.7999C139.496 30.4095 133.861 28.6746 127.495 28.5952C116.555 28.4495 107.816 33.5748 101.28 43.9711C101.261 44.0042 100.998 44.5207 100.492 45.5206C99.7957 46.9112 98.7263 47.3482 97.2836 46.8317C96.1383 46.4278 95.5625 46.2225 95.5561 46.2159C84.3117 43.4546 74.9941 46.5105 67.6033 55.3838C63.4649 60.3634 61.3704 66.3264 61.3198 73.2727C61.3198 73.3124 61.2977 73.723 61.2534 74.5043C61.1585 76.1532 61.9051 76.9147 63.4934 76.7889C64.4489 76.7094 64.9361 76.6697 64.9551 76.6697C101.017 76.4114 136.914 76.4147 172.647 76.6796C174.027 76.6862 174.799 75.9711 174.963 74.5341C175.874 66.5151 173.463 60.0224 167.73 55.056C164.687 52.4271 161.207 50.7584 157.29 50.0499C156.996 49.995 156.721 49.8631 156.49 49.6667C156.259 49.4703 156.08 49.2159 155.97 48.9275ZM51.7048 75.4082C52.6097 76.2823 53.0653 76.0737 53.0716 74.7825C53.0906 70.8358 53.5683 66.8793 54.5048 62.9128C55.0553 60.5952 54.4257 60.1648 52.616 61.6216C47.1045 66.0714 46.8008 70.667 51.7048 75.4082Z" fill="#0B0B9C"/>
<path d="M73.2414 95.0055C101.001 95.085 128.764 95.0055 156.53 94.7671C162.542 94.7141 168.651 94.8135 174.859 95.0651C174.962 95.0703 175.062 95.0985 175.153 95.1473C175.244 95.1962 175.323 95.2645 175.383 95.3469C175.444 95.4294 175.484 95.5239 175.502 95.6231C175.52 95.7223 175.514 95.8236 175.485 95.9193L171.518 109.954C171.543 110.352 171.372 110.517 171.005 110.451C171.005 110.451 139.208 110.451 75.6143 110.451C73.8742 110.769 72.1214 110.934 70.356 110.948C70.4445 110.179 70.28 109.289 69.8624 108.276C68.3058 104.508 67.1984 100.478 66.5403 96.1875C66.5243 96.0795 66.5295 95.9691 66.5556 95.8633C66.5817 95.7574 66.6282 95.6583 66.6921 95.5718C66.7561 95.4854 66.8362 95.4134 66.9276 95.3605C67.019 95.3075 67.1198 95.2746 67.2237 95.2638C69.0967 95.085 71.1026 94.9989 73.2414 95.0055Z" fill="#FFC4E8"/>
<path d="M75.616 119.639C106.622 119.619 137.628 119.632 168.634 119.678C165.54 128.015 162.996 136.528 161.003 145.216C158.706 144.911 156.425 144.497 154.159 143.974C105.594 143.974 81.311 143.974 81.311 143.974C80.2796 144.199 79.6595 143.785 79.4506 142.732C77.4637 135.157 75.1573 127.694 72.5312 120.344C73.4931 119.794 74.5213 119.559 75.616 119.639Z" fill="#FFC4E8"/>
<path d="M85.1054 153.162C130.823 153.162 153.682 153.162 153.682 153.162C155.479 153.221 157.074 153.801 158.466 154.9C155.454 161.336 153.148 168.041 151.547 175.014C151.161 175.782 151.173 176.527 151.585 177.249L151.556 177.467C151.545 177.528 151.51 177.582 151.458 177.621C151.406 177.659 151.34 177.678 151.272 177.676C135.148 177.464 119.025 177.404 102.902 177.497C98.5424 177.186 94.2711 177.669 90.0885 178.947C90.2973 177.888 90.1391 176.577 89.6139 175.014C87.956 170.074 86.3646 165.111 84.8396 160.125C84.1752 157.953 83.7892 155.728 83.6816 153.45C83.9411 153.258 84.4157 153.162 85.1054 153.162Z" fill="#FFC4E8"/>
<path d="M97.2067 186.685C113.646 186.559 130.086 186.642 146.525 186.933C146.671 188.39 146.446 190.211 145.851 192.396C144.333 197.965 143.365 201.008 142.947 201.524C141.473 203.339 139.571 204.143 137.242 203.938C136.103 203.839 135.515 203.789 135.477 203.789C125.017 203.451 114.554 203.471 104.088 203.849C102.019 203.921 100.048 203.544 98.1749 202.716C97.9009 202.596 97.6795 202.36 97.5579 202.061C96.0392 198.326 94.6377 194.545 93.3531 190.718C93.0178 189.936 92.5622 189.241 91.9863 188.632C93.467 187.307 95.2072 186.658 97.2067 186.685Z" fill="#FFC4E8"/>
</svg>
