<svg width="80" height="80" viewBox="0 0 80 80" fill="none" xmlns="http://www.w3.org/2000/svg">
<path d="M60.2828 0C60.387 0 60.4911 0 60.5953 0C60.9526 0.141667 61.1661 0.375 61.2359 0.7C61.2443 0.738542 61.25 1.0276 61.2531 1.56719C61.2677 4.0026 61.2536 6.43802 61.2109 8.87344C61.0984 8.91927 60.9583 8.94635 60.7906 8.95469C59.9 9.00156 59.0474 9.02188 58.2328 9.01562C56.5568 9.00417 55.7036 8.99844 55.6734 8.99844C51.8057 9.03802 47.9385 9.04167 44.0719 9.00937C43.0208 9.00104 41.9792 9.00156 40.9469 9.01094C38.0542 9.03802 35.6161 9.04219 33.6328 9.02344C30.8401 8.9974 28.5172 8.99323 26.6641 9.01094C26.6099 9.01094 26.3932 8.99948 26.0141 8.97656C25.7714 8.96094 25.5536 8.97969 25.3609 9.03281C25.1557 9.0901 25.0094 9.03698 24.9219 8.87344C36.7094 5.91615 48.4964 2.95833 60.2828 0Z" fill="#E69644"/>
<path d="M24.9219 8.87341C25.0094 9.03695 25.1557 9.09008 25.3609 9.03279C25.5536 8.97966 25.7714 8.96091 26.0141 8.97654C26.3932 8.99945 26.6099 9.01091 26.6641 9.01091C28.5172 8.9932 30.8401 8.99737 33.6328 9.02341C35.6161 9.04216 38.0542 9.038 40.9469 9.01091C41.9792 9.00154 43.0208 9.00102 44.0719 9.00935C47.9385 9.04164 51.8057 9.038 55.6734 8.99841C55.7036 8.99841 56.5568 9.00414 58.2328 9.0156C59.0474 9.02185 59.9 9.00154 60.7906 8.95466C60.9583 8.94633 61.0984 8.91925 61.2109 8.87341L61.25 11.9078C45.2531 11.9109 29.2568 11.9161 13.2609 11.9234C13.2516 11.9234 13.2078 11.9291 13.1297 11.9406C13.0568 11.9521 12.9901 11.9281 12.9297 11.8687L24.9219 8.87341Z" fill="#D48339"/>
<path d="M12.9297 11.8688C12.9901 11.9281 13.0568 11.9521 13.1297 11.9406C13.2078 11.9292 13.2516 11.9235 13.2609 11.9235C29.2568 11.9162 45.2531 11.911 61.25 11.9078C63.8875 11.9193 65.5932 11.9214 66.3672 11.9141C66.7432 11.911 67.0099 12.0349 67.1672 12.286C67.2589 12.4328 67.3047 12.6886 67.3047 13.0531C67.3078 34.4188 67.3057 55.7839 67.2984 77.1485C67.1724 77.163 67.1307 77.1505 67.1734 77.111C67.1964 77.0901 67.1927 77.0797 67.1625 77.0797C66.5167 77.0797 65.8708 77.0797 65.225 77.0797C48.3271 77.0943 31.4292 77.1042 14.5312 77.1094C13.9198 77.1104 13.3099 77.0844 12.7016 77.0313L12.6953 12.0328C12.6954 12.0047 12.7009 11.978 12.7113 11.9555C12.7217 11.9331 12.7367 11.9155 12.7547 11.9047C12.8047 11.8735 12.863 11.8615 12.9297 11.8688ZM47.4219 37.8125C47.4141 37.8103 47.407 37.806 47.4014 37.8C47.3959 37.7941 47.3919 37.7868 47.39 37.7787C47.3881 37.7707 47.3884 37.7623 47.3907 37.7542C47.3929 37.7462 47.3972 37.7388 47.4031 37.7328C49.576 35.5735 51.7021 33.4354 53.7812 31.3188C53.7885 31.3115 53.8547 31.2495 53.9797 31.1328C54.1672 30.9599 54.2938 30.7563 54.3594 30.5219C54.4323 30.2636 54.413 29.9985 54.3016 29.7266C54.1151 29.2693 53.7682 29.0292 53.2609 29.0063C53.0089 28.9938 52.7776 29.061 52.5672 29.2078C52.3932 29.3297 52.2047 29.4927 52.0016 29.6969C49.9026 31.8167 47.7875 33.9193 45.6562 36.0047C45.6146 36.0453 45.5911 36.0365 45.5859 35.9781C45.5245 35.2365 45.6495 34.5287 45.9609 33.8547C46.487 32.7141 47.1661 31.6735 47.9984 30.7328C48.9516 29.6547 49.7615 28.8057 50.4281 28.186C50.801 27.8391 51.025 27.5818 51.1 27.4141C51.2625 27.0505 51.2182 26.6787 50.9672 26.2985C50.7099 25.9099 50.3703 25.7297 49.9484 25.7578C49.687 25.7755 49.3953 25.9177 49.0734 26.1844C47.1182 27.8021 45.5021 29.713 44.225 31.9172C44.0177 32.2755 43.7651 32.8573 43.4672 33.6625C42.9495 35.0604 43.025 36.463 43.6938 37.8703C43.7065 37.8974 43.7104 37.9277 43.7051 37.9571C43.6998 37.9865 43.6855 38.0135 43.6641 38.0344L40.4906 41.2094C40.4668 41.233 40.4349 41.2464 40.4018 41.2467C40.3687 41.247 40.3371 41.2341 40.3141 41.211L36.4062 37.3031C36.3876 37.2844 36.3754 37.26 36.3712 37.2335C36.367 37.2069 36.371 37.1794 36.3828 37.1547C37.0307 35.7964 37.1495 34.3729 36.7391 32.8844C36.1109 30.599 34.8307 28.7761 32.8984 27.4156C31.5786 26.4865 30.1729 26.0959 28.6812 26.2438C27.626 26.3479 26.6677 26.7167 25.8063 27.35C24.3677 28.4063 23.6313 29.8901 23.5969 31.8016C23.5854 32.436 23.6719 33.0485 23.8562 33.6391C24.05 34.263 24.3172 34.8307 24.6578 35.3422C26.062 37.4485 28.025 38.8052 30.5469 39.4125C31.9135 39.7417 33.2458 39.599 34.5438 38.9844C34.5647 38.9744 34.5883 38.9713 34.6113 38.9755C34.6343 38.9797 34.6555 38.991 34.6719 39.0078L38.5875 42.9422C38.5988 42.9535 38.6078 42.9668 38.6139 42.9815C38.62 42.9962 38.6231 43.012 38.6231 43.0278C38.6231 43.0437 38.62 43.0593 38.6139 43.0739C38.6078 43.0884 38.5988 43.1015 38.5875 43.1125C35.9292 45.7521 33.3276 48.3641 30.7828 50.9485C30.4505 51.286 30.2578 51.5849 30.2047 51.8453C30.1099 52.3037 30.2792 52.688 30.7125 52.9985C31.0167 53.2151 31.3391 53.2771 31.6797 53.1844C31.8922 53.1271 32.1422 52.9568 32.4297 52.6735C35.0328 50.111 37.6531 47.5016 40.2906 44.8453C40.3172 44.819 40.3532 44.8042 40.3906 44.8042C40.4281 44.8042 40.464 44.819 40.4906 44.8453C43.1219 47.4891 45.7328 50.0886 48.3234 52.6438C48.5964 52.9136 48.8385 53.0828 49.05 53.1516C49.3917 53.262 49.7052 53.2276 49.9906 53.0485C50.3354 52.8318 50.5266 52.5261 50.5641 52.1313C50.6016 51.7354 50.4427 51.3604 50.0875 51.0063C47.4333 48.3615 44.7943 45.7156 42.1703 43.0688C42.1542 43.0527 42.1453 43.0308 42.1456 43.0076C42.1459 42.9845 42.1553 42.9621 42.1719 42.9453L45.3875 39.7485C45.4095 39.7266 45.4375 39.712 45.4677 39.7067C45.4979 39.7014 45.5289 39.7056 45.5563 39.7188C46.9146 40.3625 48.2839 40.4521 49.6641 39.9875C50.4766 39.7136 51.1714 39.4021 51.7484 39.0531C53.7526 37.8375 55.5505 36.3005 57.1422 34.4422C57.4255 34.112 57.5901 33.8323 57.6359 33.6031C57.7099 33.2261 57.5964 32.8875 57.2953 32.5875C56.9495 32.2438 56.574 32.1323 56.1688 32.2531C55.9396 32.3208 55.6578 32.5287 55.3234 32.8766C54.9557 33.2599 54.5859 33.6406 54.2141 34.0188C53.0339 35.2208 51.7146 36.2438 50.2563 37.0875C49.5229 37.5125 48.7344 37.7672 47.8906 37.8516C47.7208 37.8682 47.5646 37.8552 47.4219 37.8125ZM53.5359 61.0203C53.5359 60.7017 53.4093 60.396 53.184 60.1707C52.9587 59.9454 52.653 59.8188 52.3344 59.8188H27.6656C27.347 59.8188 27.0413 59.9454 26.816 60.1707C26.5907 60.396 26.4641 60.7017 26.4641 61.0203V61.0485C26.4641 61.3671 26.5907 61.6727 26.816 61.8981C27.0413 62.1234 27.347 62.25 27.6656 62.25H52.3344C52.653 62.25 52.9587 62.1234 53.184 61.8981C53.4093 61.6727 53.5359 61.3671 53.5359 61.0485V61.0203ZM49.1406 67.4594C49.1406 67.301 49.1094 67.1441 49.0488 66.9978C48.9882 66.8514 48.8993 66.7185 48.7873 66.6064C48.6753 66.4944 48.5423 66.4056 48.396 66.345C48.2496 66.2843 48.0928 66.2531 47.9344 66.2531H32.0438C31.7238 66.2531 31.417 66.3802 31.1908 66.6064C30.9646 66.8327 30.8375 67.1395 30.8375 67.4594V67.5C30.8375 67.6584 30.8687 67.8153 30.9293 67.9616C30.9899 68.108 31.0788 68.241 31.1908 68.353C31.3028 68.465 31.4358 68.5538 31.5821 68.6144C31.7285 68.6751 31.8853 68.7063 32.0438 68.7063H47.9344C48.0928 68.7063 48.2496 68.6751 48.396 68.6144C48.5423 68.5538 48.6753 68.465 48.7873 68.353C48.8993 68.241 48.9882 68.108 49.0488 67.9616C49.1094 67.8153 49.1406 67.6584 49.1406 67.5V67.4594Z" fill="#F1CD65"/>
<path d="M47.4218 37.8125C47.5645 37.8552 47.7208 37.8682 47.8906 37.8515C48.7343 37.7672 49.5229 37.5125 50.2562 37.0875C51.7145 36.2437 53.0338 35.2208 54.214 34.0187C54.5859 33.6406 54.9557 33.2599 55.3234 32.8765C55.6578 32.5286 55.9395 32.3208 56.1687 32.2531C56.5739 32.1323 56.9494 32.2437 57.2953 32.5875C57.5963 32.8875 57.7099 33.226 57.6359 33.6031C57.5901 33.8323 57.4255 34.112 57.1421 34.4422C55.5505 36.3005 53.7526 37.8375 51.7484 39.0531C51.1713 39.4021 50.4765 39.7135 49.664 39.9875C48.2838 40.4521 46.9145 40.3625 45.5562 39.7187C45.5288 39.7056 45.4979 39.7014 45.4677 39.7067C45.4375 39.712 45.4094 39.7266 45.3875 39.7484L42.1718 42.9453C42.1553 42.9621 42.1459 42.9845 42.1456 43.0076C42.1453 43.0307 42.1542 43.0527 42.1703 43.0687C44.7942 45.7156 47.4333 48.3614 50.0875 51.0062C50.4427 51.3604 50.6015 51.7354 50.564 52.1312C50.5265 52.526 50.3354 52.8317 49.9906 53.0484C49.7052 53.2276 49.3916 53.262 49.05 53.1515C48.8385 53.0828 48.5963 52.9135 48.3234 52.6437C45.7328 50.0885 43.1218 47.489 40.4906 44.8453C40.464 44.819 40.428 44.8042 40.3906 44.8042C40.3531 44.8042 40.3172 44.819 40.2906 44.8453C37.6531 47.5015 35.0328 50.1109 32.4296 52.6734C32.1421 52.9567 31.8921 53.1271 31.6796 53.1844C31.339 53.2771 31.0166 53.2151 30.7125 52.9984C30.2791 52.688 30.1099 52.3036 30.2046 51.8453C30.2578 51.5849 30.4505 51.2859 30.7828 50.9484C33.3276 48.364 35.9291 45.7521 38.5875 43.1125C38.5987 43.1015 38.6077 43.0884 38.6138 43.0738C38.62 43.0593 38.6231 43.0436 38.6231 43.0278C38.6231 43.0119 38.62 42.9962 38.6138 42.9815C38.6077 42.9668 38.5987 42.9534 38.5875 42.9422L34.6718 39.0078C34.6554 38.9909 34.6342 38.9796 34.6112 38.9754C34.5883 38.9712 34.5646 38.9743 34.5437 38.9844C33.2458 39.5989 31.9135 39.7416 30.5468 39.4125C28.025 38.8052 26.0619 37.4484 24.6578 35.3422C24.3171 34.8307 24.05 34.263 23.8562 33.639C23.6718 33.0484 23.5854 32.4359 23.5968 31.8015C23.6312 29.8901 24.3677 28.4062 25.8062 27.35C26.6677 26.7166 27.626 26.3479 28.6812 26.2437C30.1729 26.0958 31.5786 26.4864 32.8984 27.4156C34.8307 28.776 36.1109 30.5989 36.739 32.8844C37.1494 34.3729 37.0307 35.7963 36.3828 37.1547C36.371 37.1794 36.3669 37.2069 36.3711 37.2334C36.3753 37.26 36.3876 37.2843 36.4062 37.3031L40.314 41.2109C40.3377 41.2341 40.3695 41.2469 40.4026 41.2466C40.4357 41.2463 40.4674 41.2329 40.4906 41.2094L43.664 38.0344C43.6854 38.0135 43.6998 37.9865 43.7051 37.9571C43.7104 37.9277 43.7064 37.8973 43.6937 37.8703C43.025 36.463 42.9494 35.0604 43.4671 33.6625C43.7651 32.8573 44.0177 32.2755 44.225 31.9172C45.502 29.713 47.1182 27.8021 49.0734 26.1844C49.3953 25.9177 49.6869 25.7755 49.9484 25.7578C50.3703 25.7297 50.7099 25.9099 50.9671 26.2984C51.2182 26.6786 51.2625 27.0505 51.1 27.414C51.025 27.5817 50.801 27.839 50.4281 28.1859C49.7614 28.8057 48.9515 29.6547 47.9984 30.7328C47.1661 31.6734 46.4869 32.714 45.9609 33.8547C45.6494 34.5286 45.5244 35.2364 45.5859 35.9781C45.5911 36.0364 45.6145 36.0453 45.6562 36.0047C47.7875 33.9192 49.9026 31.8166 52.0015 29.6969C52.2046 29.4927 52.3932 29.3297 52.5671 29.2078C52.7776 29.0609 53.0088 28.9937 53.2609 29.0062C53.7682 29.0291 54.1151 29.2692 54.3015 29.7265C54.413 29.9984 54.4322 30.2635 54.3593 30.5219C54.2937 30.7562 54.1671 30.9599 53.9796 31.1328C53.8546 31.2495 53.7885 31.3114 53.7812 31.3187C51.702 33.4354 49.576 35.5734 47.4031 37.7328C47.3972 37.7388 47.3929 37.7461 47.3906 37.7542C47.3883 37.7622 47.3881 37.7707 47.39 37.7787C47.3919 37.7867 47.3958 37.7941 47.4014 37.8C47.407 37.8059 47.414 37.8102 47.4218 37.8125Z" fill="#315771"/>
<path d="M52.3344 59.8187H27.6657C27.0021 59.8187 26.4641 60.3567 26.4641 61.0203V61.0484C26.4641 61.712 27.0021 62.25 27.6657 62.25H52.3344C52.998 62.25 53.536 61.712 53.536 61.0484V61.0203C53.536 60.3567 52.998 59.8187 52.3344 59.8187Z" fill="#C23756"/>
<path d="M47.9344 66.2531H32.0438C31.3776 66.2531 30.8375 66.7932 30.8375 67.4594V67.5C30.8375 68.1662 31.3776 68.7062 32.0438 68.7062H47.9344C48.6006 68.7062 49.1406 68.1662 49.1406 67.5V67.4594C49.1406 66.7932 48.6006 66.2531 47.9344 66.2531Z" fill="#C23756"/>
<path d="M12.7015 77.0312C13.3099 77.0844 13.9198 77.1104 14.5312 77.1094C31.4291 77.1042 48.3271 77.0943 65.225 77.0797C65.8708 77.0797 66.5166 77.0797 67.1625 77.0797C67.1927 77.0797 67.1963 77.0901 67.1734 77.1109C67.1307 77.1505 67.1724 77.163 67.2984 77.1484C67.3036 77.5745 67.3062 78.001 67.3062 78.4281C67.3052 79.0021 67.3041 79.2938 67.3031 79.3031C67.2396 79.6417 67.0156 79.874 66.6312 80C48.8833 80 31.1359 80 13.389 80C12.9922 79.8844 12.7614 79.6531 12.6969 79.3062C12.6958 79.2979 12.6948 79.0042 12.6937 78.425C12.6937 77.9604 12.6963 77.4958 12.7015 77.0312Z" fill="#EBB34F"/>
</svg>
