<svg width="80" height="80" viewBox="0 0 80 80" fill="none" xmlns="http://www.w3.org/2000/svg">
<path d="M52.9297 31.0609L52.8953 31.0719C52.8912 31.0731 52.8868 31.0734 52.8825 31.0728C52.8783 31.0723 52.8742 31.0708 52.8707 31.0686C52.8671 31.0663 52.8641 31.0634 52.8619 31.0599C52.8596 31.0564 52.8583 31.0525 52.8578 31.0484C52.8109 30.6651 52.7146 30.3578 52.5688 30.1266C52.3208 29.7359 51.9422 29.3214 51.4328 28.8828C50.7391 28.2859 50.3656 27.5276 50.3125 26.6078C50.3552 26.5276 50.3646 26.4453 50.3406 26.3609C50.324 26.3016 50.3172 26.2516 50.3203 26.2109C50.3849 25.4995 50.138 24.9495 49.5797 24.5609C47.7453 23.2818 45.7016 22.4083 43.4484 21.9406C41.3568 21.5052 39.2438 21.3401 37.1094 21.4453C36.9771 21.4516 36.7427 21.4495 36.4063 21.4391C36.4219 21.363 36.3948 21.3167 36.325 21.3C35.4177 21.0698 34.637 20.6578 33.9828 20.0641C33.3557 19.4943 32.888 18.7813 32.5797 17.925C31.9974 16.3083 32.2182 14.7344 33.2422 13.2031C33.8901 12.2333 34.8261 11.5604 36.05 11.1844C36.067 11.179 36.0841 11.1673 36.0998 11.1502C36.1155 11.1331 36.1295 11.1111 36.1406 11.0859C36.1594 11.0401 36.1958 11.0057 36.25 10.9828C41.1823 10.9287 46.1146 10.9151 51.0469 10.9422C51.7146 10.9464 52.2234 11.0203 52.5734 11.1641C53.6703 11.6161 54.2188 12.5563 54.2188 13.9844C54.2188 16.6802 54.2188 19.3755 54.2188 22.0703C54.2188 23.7891 54.2042 24.8302 54.175 25.1938C54.0604 26.6333 53.7396 28.0563 53.2125 29.4625C53.0344 29.9385 52.9401 30.4714 52.9297 31.0609Z" fill="#694B4B"/>
<path d="M36.25 10.9828C36.1959 11.0057 36.1594 11.0401 36.1407 11.0859C36.1295 11.1111 36.1155 11.1331 36.0998 11.1502C36.0841 11.1673 36.067 11.179 36.05 11.1844C34.8261 11.5604 33.8901 12.2333 33.2422 13.2031C32.2183 14.7344 31.9974 16.3083 32.5797 17.925C32.888 18.7813 33.3558 19.4943 33.9828 20.0641C34.637 20.6578 35.4177 21.0698 36.325 21.3C36.3948 21.3167 36.4219 21.363 36.4063 21.4391C34.5782 21.5901 32.7693 21.8594 30.9797 22.2469C30.5933 22.3313 30.3188 22.4333 30.1563 22.5531C29.8854 22.751 29.7292 23.0198 29.6875 23.3594C29.6375 23.7677 29.6308 24.7703 29.6672 26.3672C29.6891 27.2964 29.3584 28.0656 28.675 28.675C28.0136 29.2646 27.4808 29.9536 27.0766 30.7422C27.0058 30.1536 26.8245 29.4474 26.5328 28.6234C26.1141 27.438 25.8776 26.174 25.8235 24.8313C25.8224 24.8167 25.8177 24.0438 25.8094 22.5125C25.8021 21.2417 25.8188 20.4693 25.8594 20.1953C26.4896 15.9526 28.7584 13.0781 32.6657 11.5719C33.7136 11.1688 34.9084 10.9724 36.25 10.9828Z" fill="#5A4146"/>
<path d="M50.3125 26.6078C50.2552 26.5766 50.1938 26.5583 50.1281 26.5531C50.0667 26.5479 50.0167 26.5354 49.9781 26.5156C48.8552 25.9323 47.6776 25.4927 46.4453 25.1969C44.1068 24.6354 41.737 24.4359 39.3359 24.5984C38.7349 24.6391 38.1349 24.6922 37.5359 24.7578C36.9203 24.8245 36.4474 24.9537 36.1172 25.1453C35.4776 25.5182 35.0781 26.062 34.9188 26.7766C34.8698 26.9974 34.8432 27.637 34.8391 28.6953C34.8297 31.2005 34.838 33.7057 34.8641 36.2109C34.8776 37.5453 34.9583 38.5813 35.1063 39.3188C35.5615 41.5886 36.5448 43.5703 38.0563 45.2641C38.2229 45.4505 38.3109 45.5948 38.3203 45.6969C36.2297 45.4469 34.3281 44.7177 32.6156 43.5094C32.5698 43.4771 32.5063 43.4464 32.425 43.4172C32.3563 43.3932 32.2922 43.3609 32.2328 43.3203C32.2245 43.287 32.2135 43.2537 32.2 43.2203C32.1875 43.1912 32.1661 43.1646 32.1359 43.1406C29.1401 40.775 27.4646 37.6708 27.1094 33.8281C27.0531 33.2219 27.0422 32.1932 27.0766 30.7422C27.4807 29.9537 28.0135 29.2646 28.675 28.675C29.3583 28.0656 29.6891 27.2964 29.6672 26.3672C29.6307 24.7703 29.6375 23.7677 29.6875 23.3594C29.7292 23.0198 29.8854 22.7511 30.1563 22.5531C30.3188 22.4333 30.5932 22.3313 30.9797 22.2469C32.7693 21.8594 34.5781 21.5901 36.4063 21.4391C36.7427 21.4495 36.9771 21.4516 37.1094 21.4453C39.2438 21.3401 41.3568 21.5052 43.4484 21.9406C45.7016 22.4083 47.7453 23.2818 49.5797 24.5609C50.138 24.9495 50.3849 25.4995 50.3203 26.2109C50.3172 26.2516 50.324 26.3016 50.3406 26.3609C50.3646 26.4453 50.3552 26.5276 50.3125 26.6078Z" fill="#E6AF78"/>
<path d="M50.3125 26.6078C50.3656 27.5276 50.7391 28.2859 51.4328 28.8828C51.9422 29.3213 52.3208 29.7359 52.5687 30.1265C52.7146 30.3578 52.8109 30.6651 52.8578 31.0484C52.8582 31.0525 52.8596 31.0564 52.8618 31.0599C52.8641 31.0634 52.8671 31.0663 52.8706 31.0686C52.8742 31.0708 52.8783 31.0722 52.8825 31.0728C52.8868 31.0734 52.8911 31.0731 52.8953 31.0719L52.9297 31.0609C52.913 31.7109 52.8958 32.3609 52.8781 33.0109C52.8562 33.8078 52.8042 34.4547 52.7219 34.9515C52.1823 38.1817 50.6469 40.838 48.1156 42.9203C47.9333 43.0692 47.8172 43.1896 47.7672 43.2812C47.6734 43.2625 47.5963 43.2807 47.5359 43.3359C47.4724 43.3942 47.4385 43.425 47.4344 43.4281C44.701 45.3104 41.663 46.0666 38.3203 45.6968C38.3109 45.5948 38.2229 45.4505 38.0562 45.264C36.5448 43.5703 35.5614 41.5885 35.1062 39.3187C34.9583 38.5812 34.8776 37.5453 34.8641 36.2109C34.838 33.7057 34.8297 31.2005 34.839 28.6953C34.8432 27.637 34.8698 26.9974 34.9187 26.7765C35.0781 26.062 35.4776 25.5182 36.1172 25.1453C36.4474 24.9536 36.9203 24.8245 37.5359 24.7578C38.1349 24.6922 38.7349 24.639 39.3359 24.5984C41.737 24.4359 44.1068 24.6354 46.4453 25.1969C47.6776 25.4927 48.8552 25.9323 49.9781 26.5156C50.0167 26.5354 50.0667 26.5479 50.1281 26.5531C50.1937 26.5583 50.2552 26.5765 50.3125 26.6078Z" fill="#F0C087"/>
<path d="M74.889 41.0547C74.8849 41.0141 74.8703 40.987 74.8453 40.9734C74.8214 40.962 74.8006 40.9488 74.785 40.9354C74.7693 40.922 74.7594 40.9087 74.7562 40.8969C74.5958 40.3281 74.2703 39.85 73.7797 39.4625C72.7818 38.676 71.7016 38.1078 70.5391 37.7578C68.4443 37.1266 66.3015 36.7963 64.1109 36.7672C63.9974 36.7661 63.7338 36.826 63.3203 36.9469C63.3255 36.8969 63.3167 36.8531 63.2937 36.8156C63.2834 36.7985 63.2662 36.784 63.2437 36.7736C63.2212 36.7632 63.1943 36.7572 63.1656 36.7562C62.5062 36.7344 61.9489 36.5104 61.4937 36.0844C60.8458 35.4771 60.5823 34.712 60.7031 33.7891C60.8 33.0536 61.0286 32.4458 61.3891 31.9656C61.3943 31.9573 61.4109 31.9109 61.439 31.8266L61.4844 31.6859C61.601 31.6099 61.8255 31.4286 62.1578 31.1422C62.5015 30.8484 62.9208 30.6312 63.4156 30.4906C63.7375 30.3989 64.1989 30.3495 64.8 30.3422C67.6271 30.3047 70.4542 30.2958 73.2812 30.3156C74.5135 30.3239 75.3635 30.8068 75.8312 31.7641C76.0062 32.1213 76.1062 32.6271 76.1312 33.2812C76.1875 34.7771 76.1489 35.962 76.0156 36.8359C75.8792 37.7276 75.5036 39.1338 74.889 41.0547Z" fill="#694B4B"/>
<path d="M16.2438 54.0234C15.8917 53.6943 15.6703 53.2906 15.5797 52.8125C15.4964 51.976 15.4724 51.2208 15.5078 50.5469C15.5193 50.3239 15.5042 50.1417 15.4625 50C15.4896 49.9302 15.5469 49.8682 15.6344 49.8141C17.0375 48.9526 18.0651 47.7516 18.7172 46.2109C19.0589 45.4963 19.2594 44.7469 19.3187 43.9625C19.3396 43.6792 19.3031 43.4417 19.2094 43.25C19.1 43.025 18.9438 42.8302 18.7406 42.6656C16.4042 40.7604 13.7901 39.3771 10.8984 38.5156C10.4495 38.3823 10.0979 38.3021 9.84375 38.275C9.77188 38.1135 9.66458 37.9885 9.52188 37.9C9.3 37.7625 9.17031 37.6755 9.13281 37.6391C8.02135 36.538 7.6724 35.2156 8.08594 33.6719C8.36406 32.6333 8.99115 31.8219 9.96719 31.2375C10.0161 31.2083 10.0469 31.175 10.0594 31.1375C10.0875 31.0489 10.0286 31.0193 9.88281 31.0484C11.2807 30.7245 12.6349 30.7396 13.9453 31.0937C16.5526 31.7989 18.4927 33.3614 19.7656 35.7812C20.2969 36.7917 20.6484 37.8073 20.8203 38.8281C20.8734 39.1427 20.9656 39.8849 21.0969 41.0547C21.4167 43.9016 21.9844 46.6953 22.8 49.4359C23.0479 50.2693 23.1734 50.7469 23.1766 50.8687C23.187 51.4594 22.8474 51.9021 22.1578 52.1969C20.1578 53.0542 18.2047 53.6458 16.2984 53.9719C16.2839 53.974 16.2729 53.9792 16.2656 53.9875C16.2563 53.9979 16.249 54.0099 16.2438 54.0234Z" fill="#694B4B"/>
<path d="M9.88282 31.0484C10.0287 31.0193 10.0875 31.049 10.0594 31.1375C10.0469 31.175 10.0162 31.2083 9.9672 31.2375C8.99116 31.8219 8.36408 32.6333 8.08595 33.6719C7.67241 35.2156 8.02137 36.538 9.13282 37.6391C9.17033 37.6755 9.30001 37.7625 9.52189 37.9C9.6646 37.9885 9.77189 38.1135 9.84376 38.275C9.48543 38.2573 9.18647 38.3776 8.94689 38.6359C8.79585 38.7984 8.62293 39.0547 8.42814 39.4047C7.87814 40.3911 7.09585 41.2359 6.08126 41.9391C5.7198 42.1911 5.35053 42.4318 4.97345 42.6609C4.52032 42.9359 4.23907 43.1615 4.1297 43.3375C3.93282 43.6552 3.88126 44.0432 3.97501 44.5016C4.45835 46.8651 5.68126 48.663 7.64376 49.8953C7.68126 49.9193 7.70053 49.9542 7.70158 50L7.66251 52.7734C7.57189 53.2182 7.37658 53.6089 7.07658 53.9453C5.00158 53.5464 3.04949 52.9443 1.22032 52.1391C0.733867 51.9245 0.454179 51.5922 0.381262 51.1422C0.341679 50.9047 0.404179 50.5161 0.568762 49.9766C1.56564 46.7078 2.24845 43.174 2.6172 39.375C2.75262 37.9833 3.23335 36.6042 4.05939 35.2375C5.40105 33.0188 7.3422 31.6224 9.88282 31.0484Z" fill="#5A4146"/>
<path d="M61.4844 31.6859L61.4391 31.8266C61.4109 31.9109 61.3943 31.9573 61.3891 31.9656C61.0286 32.4458 60.8 33.0536 60.7031 33.7891C60.5823 34.712 60.8458 35.4771 61.4937 36.0844C61.9489 36.5104 62.5062 36.7344 63.1656 36.7562C63.1944 36.7572 63.2213 36.7632 63.2437 36.7736C63.2662 36.784 63.2834 36.7985 63.2937 36.8156C63.3167 36.8531 63.3255 36.8969 63.3203 36.9469C62.9828 37.1052 62.6474 37.3448 62.3141 37.6656C61.3016 38.6427 60.5203 39.424 59.9703 40.0094C59.5818 40.424 59.3552 41.0068 59.2906 41.7578C58.7771 40.2713 58.4406 39.1516 58.2812 38.3984C58.1344 37.7057 58.0646 36.9245 58.0719 36.0547C58.0802 35.0953 58.2208 34.3344 58.4937 33.7719C58.9823 32.7635 59.826 32.0828 61.025 31.7297C61.175 31.6849 61.3281 31.6703 61.4844 31.6859Z" fill="#5A4146"/>
<path d="M74.8891 41.0547L74.8766 41.1328C74.713 41.1411 74.6141 41.138 74.5797 41.1234C73.7224 40.7432 72.6907 40.4338 71.4844 40.1953C69.4573 39.7953 67.6219 39.5505 65.9782 39.4609C65.5115 39.4349 65.0735 39.5302 64.6641 39.7469C64.086 40.051 63.6813 40.4765 63.45 41.0234C63.3115 41.3505 63.2386 41.9015 63.2313 42.6765C63.2261 43.2974 63.2261 43.9182 63.2313 44.539C63.2396 45.5661 63.2526 46.1859 63.2703 46.3984C63.3839 47.7255 63.8115 48.9552 64.5532 50.0875C64.5573 50.0927 64.6084 50.1515 64.7063 50.264C64.7823 50.3495 64.8151 50.4547 64.8047 50.5797C64.3495 50.512 63.9818 50.387 63.7016 50.2047C63.5141 50.0838 63.35 50.0286 63.2094 50.039C63.2042 49.964 63.137 49.8859 63.0078 49.8047C61.086 48.5911 59.911 46.8614 59.4828 44.6156C59.4183 44.2771 59.3761 43.801 59.3563 43.1875C59.3417 42.7104 59.3198 42.2338 59.2906 41.7578C59.3552 41.0067 59.5818 40.4239 59.9703 40.0094C60.5203 39.4239 61.3016 38.6427 62.3141 37.6656C62.6474 37.3448 62.9828 37.1052 63.3203 36.9469C63.7339 36.826 63.9974 36.7661 64.111 36.7672C66.3016 36.7963 68.4443 37.1265 70.5391 37.7578C71.7016 38.1078 72.7818 38.676 73.7797 39.4625C74.2703 39.85 74.5959 40.3281 74.7563 40.8969C74.7595 40.9087 74.7694 40.922 74.785 40.9354C74.8006 40.9488 74.8214 40.9619 74.8453 40.9734C74.8703 40.987 74.8849 41.014 74.8891 41.0547Z" fill="#E6AF78"/>
<path d="M9.84374 38.275C10.0979 38.3021 10.4495 38.3823 10.8984 38.5156C13.7901 39.3771 16.4042 40.7604 18.7406 42.6656C18.9437 42.8302 19.1 43.025 19.2094 43.25C19.3031 43.4417 19.3396 43.6792 19.3187 43.9625C19.2594 44.7469 19.0588 45.4964 18.7172 46.211C16.4776 43.8839 13.7734 42.2021 10.6047 41.1656C10.5588 41.1509 10.5093 41.1517 10.4639 41.1678C10.4184 41.1838 10.3795 41.2144 10.3531 41.2547C9.68645 42.2703 8.86353 43.1365 7.88436 43.8531C7.84061 43.8853 7.80477 43.927 7.77959 43.9752C7.75441 44.0234 7.74054 44.0768 7.73905 44.1313C7.7203 44.8677 7.72186 45.5354 7.74374 46.1344C7.81041 47.9865 8.57551 49.4573 10.0391 50.5469C10.1703 50.6448 10.2354 50.7469 10.2344 50.8531C9.35624 50.6719 8.51197 50.3875 7.70155 50C7.70051 49.9542 7.68124 49.9193 7.64374 49.8953C5.68124 48.663 4.45832 46.8651 3.97499 44.5016C3.88124 44.0432 3.9328 43.6552 4.12968 43.3375C4.23905 43.1615 4.5203 42.936 4.97343 42.661C5.35051 42.4318 5.71978 42.1912 6.08124 41.9391C7.09582 41.236 7.87811 40.3912 8.42811 39.4047C8.62291 39.0547 8.79582 38.7985 8.94686 38.636C9.18645 38.3776 9.48541 38.2573 9.84374 38.275Z" fill="#E6AF78"/>
<path d="M74.8766 41.1328C74.8609 41.7495 74.8453 42.3661 74.8297 42.9828C74.8089 43.7557 74.749 44.3666 74.65 44.8156C74.175 46.9625 72.9865 48.6354 71.0844 49.8344C71.0136 49.8781 70.9755 49.9333 70.9703 50C70.8776 49.9875 70.7912 50.0026 70.7109 50.0453C68.8193 51.0349 66.8505 51.213 64.8047 50.5797C64.8151 50.4547 64.7823 50.3495 64.7063 50.264C64.6083 50.1515 64.5573 50.0927 64.5531 50.0875C63.8115 48.9552 63.3839 47.7255 63.2703 46.3984C63.2526 46.1859 63.2396 45.5661 63.2313 44.539C63.2261 43.9182 63.2261 43.2974 63.2313 42.6765C63.2386 41.9015 63.3115 41.3505 63.45 41.0234C63.6813 40.4765 64.086 40.051 64.6641 39.7469C65.0735 39.5302 65.5115 39.4349 65.9781 39.4609C67.6219 39.5505 69.4573 39.7953 71.4844 40.1953C72.6906 40.4338 73.7224 40.7432 74.5797 41.1234C74.6141 41.138 74.713 41.1411 74.8766 41.1328Z" fill="#F0C087"/>
<path d="M18.7172 46.2109C18.0651 47.7515 17.0375 48.9526 15.6344 49.814C15.5469 49.8682 15.4896 49.9302 15.4625 50C15.3708 50 15.2266 50.0489 15.0297 50.1469C13.5609 50.8687 11.9625 51.1042 10.2344 50.8531C10.2354 50.7469 10.1703 50.6448 10.0391 50.5469C8.57551 49.4573 7.81041 47.9864 7.74374 46.1344C7.72187 45.5354 7.7203 44.8677 7.73905 44.1312C7.74054 44.0768 7.75441 44.0234 7.77959 43.9752C7.80478 43.927 7.84061 43.8853 7.88437 43.8531C8.86353 43.1364 9.68645 42.2703 10.3531 41.2547C10.3795 41.2144 10.4184 41.1838 10.4639 41.1677C10.5093 41.1516 10.5588 41.1509 10.6047 41.1656C13.7734 42.2021 16.4776 43.8838 18.7172 46.2109Z" fill="#F0C087"/>
<path d="M47.7672 43.2812L47.7281 46.4453C47.5594 46.437 47.4005 46.4703 47.2515 46.5453C42.4838 48.9411 37.7 48.9698 32.9 46.6312C32.6208 46.4948 32.4073 46.4198 32.2594 46.4062L32.2328 43.3203C32.2922 43.3609 32.3562 43.3932 32.425 43.4172C32.5062 43.4463 32.5698 43.4771 32.6156 43.5094C34.3281 44.7177 36.2297 45.4469 38.3203 45.6969C41.663 46.0667 44.701 45.3104 47.4343 43.4281C47.4385 43.425 47.4724 43.3943 47.5359 43.3359C47.5963 43.2807 47.6734 43.2625 47.7672 43.2812Z" fill="#D29B6E"/>
<path d="M47.7281 46.4453V48.8281L40.1219 53.4828C40.0932 53.5002 40.0606 53.5093 40.0275 53.5093C39.9944 53.5093 39.9621 53.5002 39.9344 53.4828L32.2594 48.8281V46.4062C32.4073 46.4198 32.6209 46.4948 32.9 46.6313C37.7 48.9698 42.4839 48.9411 47.2516 46.5453C47.4005 46.4703 47.5594 46.437 47.7281 46.4453Z" fill="#E6AF78"/>
<path d="M32.2594 48.8281L39.9344 53.4828C39.9621 53.5001 39.9943 53.5093 40.0274 53.5093C40.0605 53.5093 40.0932 53.5001 40.1219 53.4828L47.7281 48.8281C48.5146 48.7917 49.0604 49.1463 49.3656 49.8922C49.6052 50.4797 49.9469 51.1646 50.3906 51.9469C50.2042 52.0937 50.0641 52.2292 49.9703 52.3531C48.8401 53.8667 47.6969 55.3698 46.5406 56.8625C46.1573 57.3573 45.9401 57.6281 45.8891 57.675C45.5797 57.9573 45.2234 58.0573 44.8203 57.975C44.5339 57.9156 44.2057 57.7099 43.8359 57.3578C43.3589 56.9036 42.8917 56.4396 42.4344 55.9656C42.325 55.8521 42.2667 55.8687 42.2594 56.0156C42.2083 55.8177 42.051 55.5865 41.7875 55.3219C41.2271 54.7625 40.6667 54.2021 40.1062 53.6406C40.0948 53.6291 40.0812 53.6198 40.0663 53.6134C40.0514 53.607 40.0356 53.6036 40.0196 53.6033C40.0036 53.603 39.9878 53.6059 39.9732 53.6117C39.9586 53.6176 39.9454 53.6264 39.9344 53.6375L37.8359 55.7328C37.8214 55.7484 37.8036 55.7943 37.7828 55.8703L37.7406 56.0156C37.7417 55.8885 37.6953 55.8708 37.6016 55.9625C37.1203 56.4302 36.6448 56.9047 36.175 57.3859C35.3042 58.2797 34.4964 58.2391 33.7516 57.2641C32.4089 55.5068 31.0703 53.7464 29.7359 51.9828C29.7141 51.9526 29.6719 51.9406 29.6094 51.9469C29.9625 51.301 30.2958 50.6453 30.6094 49.9797C30.8135 49.5453 31.0073 49.2583 31.1906 49.1187C31.4833 48.8958 31.8396 48.799 32.2594 48.8281Z" fill="#D23C69"/>
<path d="M7.70154 50C8.51195 50.3875 9.35623 50.6719 10.2344 50.8531C11.9625 51.1042 13.5609 50.8688 15.0297 50.1469C15.2265 50.049 15.3708 50 15.4625 50C15.5041 50.1417 15.5192 50.324 15.5078 50.5469C15.4724 51.2208 15.4963 51.976 15.5797 52.8125C15.438 52.8125 15.2578 52.8516 15.039 52.9297C12.7047 53.7578 10.3578 53.7349 7.99841 52.8609C7.8307 52.7995 7.71873 52.7703 7.66248 52.7734L7.70154 50Z" fill="#D29B6E"/>
<path d="M70.9703 50L70.9766 51.7906L70.3125 52.35C68.2208 52.9187 66.2156 52.9427 64.2969 52.4218C64.0969 52.3677 63.9646 52.3547 63.9 52.3828L63.2031 51.7906L63.2094 50.039C63.35 50.0286 63.5141 50.0838 63.7016 50.2047C63.9818 50.387 64.3495 50.512 64.8047 50.5797C66.8505 51.213 68.8193 51.0349 70.7109 50.0453C70.7911 50.0026 70.8776 49.9875 70.9703 50Z" fill="#D29B6E"/>
<path d="M63.2032 51.7906L63.9 52.3828L67.036 55.2937C67.0511 55.3083 67.0712 55.3164 67.0922 55.3164C67.1132 55.3164 67.1333 55.3083 67.1485 55.2937L70.3125 52.35L70.9766 51.7906C71.2933 51.7542 71.5115 51.8375 71.6313 52.0406C71.8563 52.4239 72.1011 52.7943 72.3657 53.1516C72.3951 53.1911 72.4379 53.2202 72.4875 53.2344C74.0802 53.6948 75.6729 54.1531 77.2657 54.6094C78.0917 54.8458 78.7969 55.3797 79.3813 56.2109C79.1438 56.3203 78.8943 56.5026 78.6328 56.7578C77.8214 57.5484 77.0125 58.3411 76.2063 59.1359C75.199 60.1265 74.7448 61.339 74.8438 62.7734C74.8938 63.4932 74.8808 65.5786 74.8047 69.0297H68.4375C68.3657 69.0318 68.3495 69.0135 68.3891 68.975C68.2162 65.2948 68.037 61.6151 67.8516 57.9359C68.0933 57.9015 68.2464 57.7682 68.311 57.5359C68.412 57.1755 68.4328 56.812 68.3735 56.4453C68.3645 56.3921 68.3382 56.3462 68.3 56.3172L67.1438 55.4437C67.1258 55.4302 67.1036 55.4233 67.0805 55.4238C67.0573 55.4244 67.0346 55.4325 67.0156 55.4469L65.9766 56.25C65.9085 56.3031 65.8636 56.3846 65.8516 56.4766C65.7901 56.9505 65.813 57.3422 65.9203 57.6515C65.9384 57.7057 65.9703 57.7483 66.0094 57.7703L66.3672 57.975C66.3339 58.0917 66.3078 58.35 66.2891 58.75C66.0422 64.1135 65.886 67.3948 65.8203 68.5937C65.8151 68.6937 65.8271 68.7755 65.8563 68.8391C65.8709 68.8711 65.882 68.9016 65.8884 68.927C65.8947 68.9524 65.896 68.9718 65.8922 68.9828C65.8735 69.0338 65.8235 69.0495 65.7422 69.0297L60.9047 69.0234C61.6037 68.787 61.9532 68.2531 61.9532 67.4219C61.9532 64.9094 61.9516 62.3963 61.9485 59.8828C61.9464 58.4797 61.4792 57.2667 60.5469 56.2437C59.9 55.576 59.1349 55.0927 58.2516 54.7937C57.988 54.7052 57.7354 54.5917 57.4938 54.4531L61.5813 53.2844C61.7469 53.2375 61.8729 53.1417 61.9594 52.9969C62.1729 52.6406 62.3985 52.3114 62.636 52.0094C62.7776 51.8302 62.9667 51.7573 63.2032 51.7906Z" fill="#D5DCED"/>
<path d="M29.6094 51.9469C29.6719 51.9406 29.7141 51.9526 29.736 51.9828C31.0703 53.7463 32.4089 55.5068 33.7516 57.264C34.4964 58.239 35.3042 58.2797 36.175 57.3859C36.6448 56.9047 37.1203 56.4302 37.6016 55.9625C37.6953 55.8708 37.7417 55.8885 37.7406 56.0156C37.7042 56.5698 37.7183 56.9703 37.7828 57.2172C37.8651 57.5286 38.0985 57.7661 38.4828 57.9297C38.1349 61.4745 37.7974 65.0203 37.4703 68.5672C37.4693 68.5765 37.4719 68.6458 37.4781 68.775C37.4834 68.8844 37.4386 68.9693 37.3438 69.0297L25.8266 69.0234C25.8235 67.5911 25.8115 66.1588 25.7906 64.7265C25.7698 63.3359 25.2948 62.1542 24.3657 61.1812C22.9875 59.7385 21.3719 58.1167 19.5188 56.3156C19.5129 56.3097 19.5074 56.3009 19.5029 56.2896C19.4983 56.2783 19.4947 56.2648 19.4922 56.25L19.486 56.2109C19.5891 56.1443 19.6563 56.0552 19.6875 55.9437C20.3604 55.4292 21.2459 54.9713 22.3438 54.5703C24.7625 53.6859 27.1844 52.8114 29.6094 51.9469Z" fill="#FF507D"/>
<path d="M50.3906 51.9469C52.5875 52.725 54.7786 53.5177 56.964 54.325C57.1359 54.3886 57.3125 54.4313 57.4937 54.4532C57.7354 54.5917 57.988 54.7052 58.2515 54.7938C59.1349 55.0927 59.9 55.5761 60.5469 56.2438C59.0083 57.7677 57.475 59.2964 55.9468 60.8297C55.3469 61.4328 54.8963 62.0948 54.5953 62.8156C54.3963 63.2927 54.2745 63.9313 54.2297 64.7313C54.1557 66.0302 54.1474 67.3302 54.2047 68.6313C54.2047 68.6396 54.2161 68.6974 54.239 68.8047C54.2578 68.8964 54.225 68.9714 54.1406 69.0297L42.539 69.0563C42.564 68.9573 42.564 68.7901 42.539 68.5547C42.4265 67.4745 42.101 64.063 41.5625 58.3203C41.5396 58.0776 41.5396 57.9235 41.5625 57.8578C41.9823 57.7297 42.2067 57.4313 42.2359 56.9625C42.264 56.5125 42.2718 56.1969 42.2593 56.0157C42.2666 55.8688 42.325 55.8521 42.4343 55.9656C42.8916 56.4396 43.3588 56.9037 43.8359 57.3578C44.2057 57.7099 44.5338 57.9157 44.8203 57.975C45.2234 58.0573 45.5797 57.9573 45.889 57.675C45.9401 57.6281 46.1573 57.3573 46.5406 56.8625C47.6968 55.3698 48.8401 53.8667 49.9703 52.3532C50.064 52.2292 50.2041 52.0938 50.3906 51.9469Z" fill="#FF507D"/>
<path d="M70.3125 52.35L67.1485 55.2937C67.1333 55.3082 67.1132 55.3163 67.0922 55.3163C67.0712 55.3163 67.0511 55.3082 67.036 55.2937L63.9 52.3828C63.9646 52.3547 64.0969 52.3677 64.2969 52.4218C66.2157 52.9427 68.2209 52.9187 70.3125 52.35Z" fill="#E6AF78"/>
<path d="M7.6625 52.7734C7.71875 52.7703 7.83073 52.7995 7.99844 52.8609C10.3578 53.7349 12.7047 53.7578 15.0391 52.9297C15.2578 52.8515 15.438 52.8125 15.5797 52.8125C15.6703 53.2906 15.8917 53.6943 16.2437 54.0234C16.2937 54.1234 16.4031 54.2245 16.5719 54.3265C17.25 54.7338 17.7807 55.0213 18.1641 55.189C18.088 55.1828 18.037 55.2068 18.0109 55.2609C17.9901 55.3068 17.9771 55.3333 17.9719 55.3406C16.8979 56.8489 15.5182 57.8557 13.8328 58.3609C12.8411 58.6578 11.812 58.7469 10.7453 58.6281C8.47135 58.3739 6.62969 57.2672 5.22031 55.3078C5.20469 55.2859 5.19271 55.2604 5.18438 55.2312C5.17604 55.2042 5.16667 55.1771 5.15625 55.15C5.49479 54.9677 5.8375 54.7927 6.18438 54.625C6.52917 54.4573 6.82656 54.2307 7.07656 53.9453C7.37656 53.6088 7.57188 53.2182 7.6625 52.7734Z" fill="#E6AF78"/>
<path d="M42.2594 56.0156C42.2719 56.1969 42.2641 56.5125 42.2359 56.9625C42.2068 57.4313 41.9823 57.7297 41.5625 57.8578L38.4828 57.9297C38.0984 57.7662 37.8651 57.5287 37.7828 57.2172C37.7182 56.9703 37.7042 56.5698 37.7406 56.0156L37.7828 55.8703C37.8036 55.7943 37.8213 55.7484 37.8359 55.7328L39.9344 53.6375C39.9454 53.6264 39.9586 53.6176 39.9732 53.6117C39.9878 53.6059 40.0036 53.603 40.0196 53.6033C40.0356 53.6036 40.0514 53.607 40.0663 53.6134C40.0812 53.6198 40.0948 53.6291 40.1062 53.6406C40.6667 54.2021 41.2271 54.7625 41.7875 55.3219C42.051 55.5865 42.2083 55.8177 42.2594 56.0156Z" fill="#5B5D6E"/>
<path d="M5.15627 55.15C5.16669 55.1771 5.17607 55.2042 5.1844 55.2313C5.19273 55.2604 5.20471 55.286 5.22034 55.3078C6.62971 57.2672 8.47138 58.374 10.7453 58.6282C11.812 58.7469 12.8412 58.6578 13.8328 58.361C15.5183 57.8558 16.8979 56.849 17.9719 55.3406C17.9771 55.3334 17.9901 55.3068 18.011 55.261C18.037 55.2068 18.088 55.1828 18.1641 55.1891L19.6875 55.9438C19.6563 56.0552 19.5891 56.1443 19.486 56.211C18.5401 57.2266 18.0651 58.4375 18.061 59.8438C18.0516 62.4615 18.0469 65.0787 18.0469 67.6953C18.0469 68.3058 18.3464 68.7245 18.9453 68.9516V68.9828C18.9454 68.9869 18.9444 68.9909 18.9423 68.9946C18.9402 68.9983 18.9371 69.0016 18.9331 69.0044C18.9292 69.0072 18.9245 69.0094 18.9193 69.0107C18.9142 69.0121 18.9087 69.0127 18.9032 69.0125L5.45002 68.9844C5.25419 68.9844 5.15627 68.887 5.15627 68.6922C5.15627 66.686 5.15836 64.687 5.16252 62.6953C5.16461 61.7526 4.80315 60.9922 4.07815 60.4141C3.16982 59.6901 2.26409 58.963 1.36096 58.2328C1.35784 58.2297 1.26982 58.175 1.0969 58.0688C0.973983 57.9927 0.892733 57.8813 0.853149 57.7344C1.21565 57.2979 1.63388 56.936 2.10784 56.6485C2.16721 56.612 2.65523 56.3636 3.5719 55.9032C4.09482 55.6407 4.62294 55.3896 5.15627 55.15Z" fill="#D5DCED"/>
<path d="M67.8516 57.936L66.3672 57.975L66.0094 57.7703C65.9703 57.7484 65.9384 57.7058 65.9203 57.6516C65.813 57.3422 65.7901 56.9506 65.8516 56.4766C65.8635 56.3846 65.9085 56.3032 65.9766 56.25L67.0156 55.4469C67.0346 55.4325 67.0573 55.4244 67.0804 55.4239C67.1036 55.4233 67.1258 55.4303 67.1438 55.4438L68.3 56.3172C68.3381 56.3462 68.3644 56.3921 68.3734 56.4453C68.4328 56.812 68.412 57.1756 68.3109 57.536C68.2464 57.7683 68.0932 57.9016 67.8516 57.936Z" fill="#959CB5"/>
<path d="M19.4859 56.2109L19.4922 56.25C19.4947 56.2648 19.4983 56.2783 19.5029 56.2896C19.5074 56.3009 19.5128 56.3097 19.5187 56.3156C21.3719 58.1167 22.9875 59.7385 24.3656 61.1812C25.2948 62.1542 25.7698 63.3359 25.7906 64.7266C25.8115 66.1589 25.8234 67.5911 25.8266 69.0234L19.1016 69.0562C19.0922 68.9583 19.0401 68.9234 18.9453 68.9516C18.3464 68.7245 18.0469 68.3057 18.0469 67.6953C18.0469 65.0786 18.0516 62.4615 18.0609 59.8438C18.0651 58.4375 18.5401 57.2266 19.4859 56.2109Z" fill="#D23C69"/>
<path d="M79.3813 56.2109C79.6948 56.7047 79.901 57.2417 80 57.8219C80 61.2208 80 64.6193 80 68.0172C79.8875 68.3693 79.6922 68.6375 79.4141 68.8219C79.2151 68.9552 78.9125 69.0286 78.5063 69.0422C77.2729 69.0849 76.0391 69.0807 74.8047 69.0297C74.8807 65.5786 74.8937 63.4932 74.8438 62.7734C74.7448 61.3391 75.199 60.1266 76.2063 59.1359C77.0125 58.3411 77.8214 57.5484 78.6328 56.7578C78.8943 56.5026 79.1438 56.3203 79.3813 56.2109Z" fill="#C7CFE2"/>
<path d="M60.5469 56.2438C61.4792 57.2667 61.9464 58.4797 61.9484 59.8828C61.9516 62.3964 61.9531 64.9094 61.9531 67.4219C61.9531 68.2532 61.6036 68.787 60.9047 69.0235C58.6505 69.0849 56.3958 69.087 54.1406 69.0297C54.225 68.9714 54.2578 68.8964 54.2391 68.8047C54.2161 68.6974 54.2047 68.6396 54.2047 68.6313C54.1474 67.3302 54.1557 66.0302 54.2297 64.7313C54.2745 63.9313 54.3964 63.2927 54.5953 62.8156C54.8964 62.0948 55.3469 61.4328 55.9469 60.8297C57.475 59.2964 59.0083 57.7677 60.5469 56.2438Z" fill="#D23C69"/>
<path d="M0.853125 57.7344C0.892708 57.8812 0.973958 57.9927 1.09687 58.0688C1.26979 58.175 1.35781 58.2297 1.36094 58.2328C2.26406 58.963 3.16979 59.6901 4.07812 60.4141C4.80312 60.9922 5.16458 61.7526 5.1625 62.6953C5.15833 64.687 5.15625 66.6859 5.15625 68.6922C5.15625 68.887 5.25417 68.9844 5.45 68.9844L18.9031 69.0125C18.9086 69.0127 18.9142 69.0121 18.9193 69.0107C18.9245 69.0093 18.9292 69.0072 18.9331 69.0044C18.9371 69.0016 18.9402 68.9983 18.9423 68.9946C18.9444 68.9908 18.9454 68.9868 18.9453 68.9828V68.9516C19.0401 68.9234 19.0922 68.9583 19.1016 69.0562C13.5276 69.0635 7.95417 69.0656 2.38125 69.0625C1.57083 69.0625 1.13073 69.0552 1.06094 69.0406C0.572396 68.9344 0.21875 68.613 0 68.0766C0 65.238 0 62.3995 0 59.5609C0.116667 58.8693 0.401042 58.2604 0.853125 57.7344Z" fill="#C7CFE2"/>
<path d="M41.5625 57.8578C41.5396 57.9234 41.5396 58.0776 41.5625 58.3203C42.101 64.063 42.4266 67.4745 42.5391 68.5547C42.5641 68.7901 42.5641 68.9573 42.5391 69.0562L37.3438 69.0297C37.4385 68.9692 37.4833 68.8843 37.4781 68.775C37.4719 68.6458 37.4693 68.5765 37.4703 68.5672C37.7974 65.0203 38.1349 61.4745 38.4828 57.9297L41.5625 57.8578Z" fill="#707487"/>
<path d="M67.8516 57.9359C68.037 61.6151 68.2161 65.2948 68.3891 68.975C68.3495 69.0135 68.3656 69.0317 68.4375 69.0297C67.5385 69.0838 66.6401 69.0838 65.7422 69.0297C65.8234 69.0495 65.8734 69.0338 65.8922 68.9828C65.896 68.9717 65.8947 68.9524 65.8883 68.927C65.882 68.9016 65.8709 68.8711 65.8563 68.839C65.8271 68.7755 65.8151 68.6937 65.8203 68.5937C65.8859 67.3948 66.0422 64.1135 66.2891 58.75C66.3078 58.35 66.3339 58.0916 66.3672 57.975L67.8516 57.9359Z" fill="#AFB9D2"/>
</svg>
